<svg width="18" height="18" viewBox="0 0 18 18" fill="none" xmlns="http://www.w3.org/2000/svg">
<path d="M18 1.81799L15.662 8.43799H15.585C15.4998 8.60481 15.3714 8.74563 15.213 8.84558C15.0546 8.94554 14.8723 9.00092 14.6851 9.00598H7.37305L7.65295 10.13H14.626C14.9243 10.13 15.2105 10.2486 15.4215 10.4595C15.6325 10.6705 15.751 10.9566 15.751 11.255C15.751 11.5534 15.6325 11.8395 15.4215 12.0505C15.2105 12.2615 14.9243 12.38 14.626 12.38H6.75598C6.45779 12.3797 6.17194 12.2611 5.96118 12.0502C5.75042 11.8392 5.63196 11.5532 5.63196 11.255C5.63876 11.192 5.65113 11.1298 5.66895 11.069L3.46899 2.255H2.81799V2.08301C2.64992 2.19067 2.45552 2.25016 2.25598 2.255H1.13196C0.833589 2.255 0.547526 2.13645 0.336548 1.92548C0.125569 1.7145 0.00695801 1.42837 0.00695801 1.13C0.00695801 0.831636 0.125569 0.545512 0.336548 0.334534C0.547526 0.123555 0.833589 0.00500488 1.13196 0.00500488H2.25598C2.45564 0.00999547 2.65009 0.0698219 2.81799 0.177979V0H16.8719C17.1701 0.000265063 17.4561 0.118884 17.6669 0.329834C17.8776 0.540784 17.996 0.826805 17.996 1.125C17.9911 1.37236 17.9031 1.61087 17.746 1.802L18 1.81799ZM5.68604 2.25L6.80798 6.75H14.041L15.63 2.25H5.68604ZM7.31396 14.625C7.6479 14.6246 7.97447 14.7233 8.25232 14.9085C8.53017 15.0937 8.74681 15.3572 8.87488 15.6656C9.00294 15.9741 9.03671 16.3135 8.9718 16.6411C8.9069 16.9687 8.74625 17.2696 8.51025 17.5059C8.27426 17.7421 7.97349 17.9032 7.646 17.9684C7.3185 18.0337 6.97909 18.0004 6.67053 17.8727C6.36197 17.745 6.09817 17.5287 5.9126 17.251C5.72703 16.9734 5.62805 16.6469 5.62805 16.313C5.62792 16.0914 5.67132 15.8721 5.75598 15.6674C5.84064 15.4626 5.9649 15.2766 6.12146 15.1198C6.27802 14.9631 6.46383 14.8387 6.66846 14.7538C6.87308 14.6689 7.09242 14.6251 7.31396 14.625ZM14.0601 14.625C14.394 14.6246 14.7204 14.7233 14.9983 14.9085C15.2761 15.0937 15.4929 15.3572 15.621 15.6656C15.749 15.9741 15.7827 16.3135 15.7178 16.6411C15.6529 16.9687 15.4923 17.2696 15.2563 17.5059C15.0204 17.7421 14.7196 17.9032 14.3921 17.9684C14.0646 18.0337 13.7251 18.0004 13.4165 17.8727C13.1079 17.745 12.8441 17.5287 12.6586 17.251C12.473 16.9734 12.374 16.6469 12.374 16.313C12.3739 16.0914 12.4174 15.8721 12.5021 15.6674C12.5867 15.4626 12.7109 15.2766 12.8674 15.1198C13.024 14.9631 13.2098 14.8387 13.4144 14.7538C13.6191 14.6689 13.8385 14.6251 14.0601 14.625Z" fill="#11293B"/>
</svg>
