<svg width="18" height="18" viewBox="0 0 18 18" fill="none" xmlns="http://www.w3.org/2000/svg">
<path d="M9.01007 18C18.0101 13.091 18.0101 6.54602 18.0101 6.54602C18.0101 4.91002 18.0101 0.818971 13.5101 0.00097145C9.01007 -0.114029 9.01007 3.27301 9.01007 3.27301C9.01007 3.27301 9.01007 0.00097145 4.51007 0.00097145C0.0100679 0.818971 0.0100681 4.91002 0.0100681 6.54602C0.00806808 6.54602 0.00806808 13.091 9.01007 18ZM5.81012 2.29998C6.44619 2.5039 7.02769 2.84956 7.5108 3.31085C7.99391 3.77213 8.36597 4.33703 8.59906 4.96301C8.85006 5.01801 9.01007 5.06298 9.01007 5.06298L8.69 5.169C8.855 5.546 8.94001 5.78098 8.97601 5.70098V5.36999C8.97557 5.44669 8.98165 5.5233 8.99408 5.59899C8.99408 5.53999 9.00103 5.464 9.00103 5.354V5.62499C9.13103 6.06899 9.84007 2.87797 12.2131 2.30297C16.3701 1.76597 15.813 5.62 15.657 7.289C15.674 7.395 15.386 11.765 9.01104 15.138V15.187C2.76104 11.823 2.37303 7.39598 2.36603 7.28698V7.276L2.26104 7.31097C2.26411 7.12959 2.28351 6.94888 2.31903 6.77099C2.14803 4.94299 2.03502 1.81398 5.80902 2.29998H5.81012Z" fill="#11293B"/>
</svg>
