<svg width="32.300049" height="32.340027" viewBox="0 0 32.3 32.34" fill="none" xmlns="http://www.w3.org/2000/svg" xmlns:xlink="http://www.w3.org/1999/xlink">
	<desc>
			Created with Pixso.
	</desc>
	<defs>
		<linearGradient id="paint_linear_0_178_0" x1="42.684448" y1="-6.855019" x2="5.909437" y2="27.517090" gradientUnits="userSpaceOnUse">
			<stop stop-color="#000000"/>
			<stop offset="0.500000" stop-color="#000000"/>
			<stop offset="1.000000" stop-color="#000000"/>
		</linearGradient>
		<linearGradient id="paint_linear_0_179_0" x1="41.681290" y1="-6.156494" x2="6.781157" y2="27.190147" gradientUnits="userSpaceOnUse">
			<stop stop-color="#000000"/>
			<stop offset="0.500000" stop-color="#000000"/>
			<stop offset="1.000000" stop-color="#000000"/>
		</linearGradient>
	</defs>
	<path id="Path 17530" d="M17.927 5.53998C17.927 1.84668 16.2007 0 12.748 0L5.17899 0C1.72565 0 -0.000665665 1.84668 0 5.53998L0 32.34L4.32498 32.34L4.32498 20.493L17.925 20.502L17.927 5.53998ZM13.603 16.574L4.32397 16.574L4.32397 5.81403C4.28823 5.5578 4.31243 5.29688 4.39462 5.05164C4.47682 4.8064 4.61478 4.58356 4.79767 4.4007C4.98056 4.21777 5.20337 4.07983 5.44861 3.99762C5.69385 3.91541 5.95483 3.89124 6.211 3.927L11.711 3.927C11.9672 3.89124 12.2281 3.91541 12.4734 3.99762C12.7186 4.07983 12.9414 4.21777 13.1243 4.4007C13.3072 4.58356 13.4452 4.8064 13.5273 5.05164C13.6095 5.29688 13.6337 5.5578 13.598 5.81403L13.603 16.574Z" fill="#FF5E00" fill-opacity="1.000000" fill-rule="nonzero"/>
	<path id="Path 17531" d="M0.490002 31.847L0.490002 5.53705C0.380758 4.1626 0.795937 2.79779 1.65202 1.71704C2.12222 1.27856 2.67856 0.942871 3.28563 0.731323C3.89269 0.519714 4.53718 0.436829 5.17802 0.488037L12.747 0.488037C13.3879 0.436829 14.0323 0.519714 14.6394 0.731323C15.2465 0.942871 15.8028 1.27856 16.273 1.71704C17.1295 2.79767 17.545 4.16248 17.436 5.53705L17.436 20.0081L3.83601 19.999L3.83601 31.845L0.490002 31.847ZM6.214 3.42804C5.89205 3.39075 5.56583 3.42676 5.25975 3.53333C4.95366 3.63989 4.67563 3.81433 4.44645 4.04352C4.21728 4.27271 4.0429 4.55066 3.93632 4.85675C3.82974 5.16284 3.79373 5.48907 3.83101 5.81104L3.83101 17.067L14.094 17.067L14.094 5.80804C14.1313 5.48608 14.0953 5.15985 13.9887 4.85376C13.8821 4.54767 13.7077 4.26965 13.4786 4.04047C13.2494 3.81128 12.9713 3.6369 12.6653 3.53033C12.3592 3.42377 12.033 3.38776 11.711 3.42505L6.214 3.42804Z" fill="#FF5E00" fill-opacity="1.000000" fill-rule="nonzero"/>
	<path id="Path 17532" d="M27.9691 0L27.9691 26.3C27.9691 27.7113 27.3837 28.4167 26.213 28.416L19.84 28.416C18.582 28.416 17.953 27.7106 17.953 26.3L17.947 22.037L13.623 22.037L13.629 26.164C13.629 30.278 15.3554 32.335 18.808 32.335L27.076 32.335C30.5587 32.335 32.3 30.293 32.3 26.209L32.3 0L27.9691 0Z" fill="url(#paint_linear_0_178_0)" fill-opacity="1.000000" fill-rule="nonzero"/>
	<path id="Path 17533" d="M18.801 31.847C18.1521 31.9 17.4997 31.8044 16.8932 31.5676C16.2868 31.3307 15.7423 30.9587 15.301 30.48C14.4204 29.2219 14.0033 27.6972 14.121 26.166L14.116 22.5311L17.458 22.5311L17.463 26.306C17.463 27.987 18.31 28.912 19.846 28.912L26.219 28.912C27.058 28.912 28.466 28.5731 28.466 26.306L28.466 0.494019L31.807 0.494019L31.807 26.215C31.9244 27.7354 31.5035 29.2486 30.618 30.4901C30.1676 30.9688 29.6148 31.3397 29.001 31.575C28.3871 31.8103 27.7281 31.904 27.073 31.8491L18.801 31.847Z" fill="url(#paint_linear_0_179_0)" fill-opacity="1.000000" fill-rule="nonzero"/>
</svg>
