<svg width="17" height="18" viewBox="0 0 17 18" fill="none" xmlns="http://www.w3.org/2000/svg">
<path d="M0.265 16.395L4.454 11.939C3.37306 10.6223 2.7837 8.97062 2.78697 7.26704C2.81827 5.86812 3.26171 4.50953 4.06172 3.36152C4.86174 2.21351 5.98276 1.32713 7.28432 0.813425C8.58588 0.299721 10.0101 0.181546 11.3785 0.473704C12.747 0.765861 13.9987 1.45537 14.977 2.45582C15.9553 3.45627 16.6166 4.72316 16.878 6.09779C17.1395 7.47241 16.9894 8.89363 16.4467 10.1834C15.904 11.4731 14.9927 12.5739 13.827 13.348C12.6614 14.1221 11.2933 14.535 9.894 14.535C8.43177 14.5372 7.00633 14.0766 5.82198 13.219L1.601 17.708C1.51764 17.7975 1.41712 17.8693 1.30547 17.9193C1.19381 17.9692 1.07329 17.9961 0.951005 17.9985C0.828723 18.001 0.707193 17.9788 0.593644 17.9334C0.480095 17.8879 0.376836 17.8201 0.289994 17.734C0.113363 17.5574 0.0120632 17.3192 0.00740099 17.0695C0.00273876 16.8198 0.0950831 16.5781 0.265 16.395ZM9.894 1.89503C8.82649 1.87118 7.77607 2.16589 6.87682 2.74165C5.97757 3.3174 5.27024 4.14807 4.84514 5.12757C4.42004 6.10708 4.29645 7.19103 4.4901 8.2411C4.68375 9.29117 5.18586 10.2597 5.93239 11.0231C6.67892 11.7866 7.63597 12.3103 8.68144 12.5274C9.72691 12.7445 10.8134 12.6453 11.8022 12.2422C12.791 11.8391 13.6372 11.1506 14.233 10.2645C14.8287 9.37834 15.1469 8.33481 15.147 7.26704C15.1598 5.85959 14.6142 4.5044 13.6298 3.49842C12.6454 2.49245 11.3024 1.91771 9.89497 1.90003L9.894 1.89503Z" fill="#677585"/>
</svg>
