<svg width="18" height="19" viewBox="0 0 18 19" fill="none" xmlns="http://www.w3.org/2000/svg">
<path d="M15.751 19H2.26002C1.86606 18.9995 1.47912 18.8956 1.13789 18.6987C0.79666 18.5018 0.513095 18.2188 0.315503 17.878C0.117911 17.5372 0.0132261 17.1504 0.0119143 16.7565C0.0106026 16.3625 0.112678 15.9751 0.307996 15.633C0.122364 15.284 0.0239109 14.8953 0.0210086 14.5C0.0210086 12.724 2.12101 11.109 5.36201 10.386C4.80713 9.62117 4.50951 8.6999 4.51204 7.755V5.5C4.50315 4.90413 4.61279 4.31243 4.83467 3.75934C5.05655 3.20625 5.38622 2.70284 5.80446 2.27832C6.22269 1.8538 6.72117 1.51667 7.27089 1.28656C7.8206 1.05645 8.41055 0.937927 9.00648 0.937927C9.60242 0.937927 10.1924 1.05645 10.7421 1.28656C11.2919 1.51667 11.7904 1.8538 12.2086 2.27832C12.6269 2.70284 12.9565 3.20625 13.1784 3.75934C13.4002 4.31243 13.5099 4.90413 13.501 5.5V7.76001C13.5032 8.70409 13.206 9.62453 12.652 10.389C15.901 11.11 18.001 12.726 18.001 14.505C17.9976 14.9034 17.8974 15.295 17.709 15.646C17.9025 15.9883 18.003 16.3753 18.0005 16.7685C17.998 17.1617 17.8925 17.5474 17.6946 17.8871C17.4966 18.2269 17.2131 18.5089 16.8723 18.705C16.5315 18.9011 16.1452 19.0046 15.752 19.005L15.751 19ZM9.01002 12.25C5.28802 12.25 2.26002 13.259 2.26002 14.5V16.75H15.749V14.628C15.7563 14.5857 15.76 14.5429 15.76 14.5C15.76 13.259 12.732 12.25 9.01002 12.25ZM9.01002 3.25C8.41353 3.25079 7.84166 3.48813 7.41987 3.90991C6.99809 4.3317 6.76082 4.90351 6.76002 5.5V7.75C6.76002 8.34674 6.99706 8.91905 7.41902 9.341C7.84098 9.76296 8.41329 10 9.01002 10C9.60676 10 10.1791 9.76296 10.601 9.341C11.023 8.91905 11.26 8.34674 11.26 7.75V5.5C11.2592 4.90351 11.0219 4.3317 10.6001 3.90991C10.1783 3.48813 9.60652 3.25079 9.01002 3.25Z" fill="#11293B"/>
</svg>
